<svg xmlns="http://www.w3.org/2000/svg" viewBox="0 0 279.66 96.17"><defs><style>.cls-1{fill:#031616;}</style></defs><g id="Layer_2" data-name="Layer 2"><g id="Layer_1-2" data-name="Layer 1"><path class="cls-1" d="M92.59,12.59,52.3,72.27l-35.72-53c-1.67.93-.83,2.41-.83,3.52q-.09,34,0,68c0,2.28.55,4.35-3.29,4.38s-3.75-1.74-3.74-4.47c.06-24.65-.13-49.31.14-74C8.89,9.62,8.43,3.54,0,1.41c6.25.3,13.09-3,17.51,4C22.92,14,28.24,22.64,33.71,31.16c5.57,8.68,11.47,17.16,16.86,25.94,2.15,3.51,3.21,1.91,4.63-.19,12-17.75,24.27-35.39,36-53.37C93.4.13,95.9.84,98.31,1.17s1.2,3,1.2,4.56c.09,28.32,0,56.64.1,85,0,2.79,0,4.45-3.77,4.44s-3.25-2.18-3.25-4.42V12.59Z"/><path class="cls-1" d="M136.28,1c10.09.17,20-.24,29.89,3.74,13.45,5.44,22.24,14.82,25,28.5,3.07,15.34,2.81,30.63-7.47,44.3-6.77,9-15.73,13.85-26.1,16.31-10.72,2.55-21.76.65-32.64,1.15-2.07.1-2.43-.76-2.47-2.61,0-2.09.83-2.47,2.64-2.44,5.83.08,11.65.12,17.47,0,24.93-.48,40.24-16,40.86-40.91.28-11-1.95-21.11-9.23-29.93C168,11.5,159.69,8.45,150.47,7c-9.85-1.55-19.79-.9-29.7-1-1.56,0-3.24.54-3.32-2.26S118.8.93,120.81,1C126,1,131.12,1,136.28,1Z"/><path class="cls-1" d="M272.25.82C265,8,258.24,14.68,251.44,21.38s-12.8,13.71-21.62,18.91c12.74,3.41,18.45,13.18,24.49,22.56q7.06,11,14,22a16.06,16.06,0,0,0,8.89,7.1c.87.28,2.6-.76,2.47.89A3.24,3.24,0,0,1,276.56,96c-7.5,1-13.89-2.73-18.41-9.5-7.6-11.39-13.31-24-22.82-34.17-5.48-5.84-11.81-8.92-19.87-8.44-1.6.1-4.08,1.28-4.14-2.36s2.3-2.65,4-2.51c7.63.62,13-3.84,17.87-8.5q13.4-12.71,26.07-26.14C262.65.82,266-1.24,272.25.82Z"/></g></g></svg>