<svg xmlns="http://www.w3.org/2000/svg" viewBox="0 0 461.89 183.2"><defs><style>.cls-1{fill:#0c0c0c;}</style></defs><g id="Layer_2" data-name="Layer 2"><g id="Layer_1-2" data-name="Layer 1"><path class="cls-1" d="M304.68,97.93v8.54c0,23.94,0,47.89.07,71.83,0,2.94-.67,3.94-3.76,3.89-8.75-.13-8.76,0-8.76-8.6l0-97.67c0-3.92,0-4,3.85-4,11.69.15,23.38.15,35.05.66a44.42,44.42,0,0,1,19.45,5.86c7.55,4.15,11.34,10.75,11.21,19.2-.14,8.94-4.6,15.64-12.46,19.82a37.49,37.49,0,0,1-22.11,4.39,20.23,20.23,0,0,1-11.74-5.84C310.25,111.07,307.18,104.86,304.68,97.93Zm.2-25.15c0,5.83-.33,11.27.07,16.66.76,10.14,4,19.32,11.75,26.44,9,8.18,26.23,7.09,31.08-7.58a33.59,33.59,0,0,0,1-17.56,19.53,19.53,0,0,0-9.62-13.28C328.41,71.06,316.59,73.19,304.88,72.78Z"/><path class="cls-1" d="M97.65,71.85c3.61,0,7.07-.08,10.51.08.53,0,1.25,1,1.47,1.69a9.34,9.34,0,0,1,.07,2.65c0,22.87-.38,45.75.21,68.6.39,14.82,6.87,26.91,20.92,33.35,18.65,8.54,42.07-3.26,47.47-23.61a45.49,45.49,0,0,0,1.58-11.11c.13-16.13.11-32.27-2.4-48.27-1.26-8-3.29-15.81-7.8-23.41,3.72,0,6.95-.15,10.15.13.58,0,1.44,1.86,1.44,2.86.09,14,.06,28.11,0,42.17q0,13.06-.08,26.13c-.12,24.48-18.93,39.91-41.74,39.46-15.07-.3-27.52-6.18-36-19-4.68-7.08-6.07-15.11-6.06-23.5,0-21.88,0-43.75-.06-65.63A24.43,24.43,0,0,1,97.65,71.85Z"/><path class="cls-1" d="M274.86,63.24C260,64.4,245.68,48.85,248.57,33.36c1.34-7.2,0-14.94-.46-22.41-.17-2.68.49-3.48,3-3a77.31,77.31,0,0,1,9,1.74c2,.61,3,.1,4.36-1.24,2.49-2.52,5.2-4.83,7.83-7.2,1.74-1.56,3.46-1.66,5.25,0,2.62,2.41,5.51,4.56,7.89,7.17,1.57,1.73,2.85,1.73,4.88,1.16a77.93,77.93,0,0,1,9-1.61c2.06-.32,3,.54,2.56,2.69-1.78,8.84-1.5,17.65-.18,26.54a17.73,17.73,0,0,1-3.33,13C292.34,58.42,285.39,63.81,274.86,63.24ZM254.44,13.57a13.8,13.8,0,0,0-.35,1.73c-.24,7.49-.39,15-.72,22.48-.39,8.69,7.68,18.85,16.27,20.09.82.12,2.54-.76,2.57-1.27.27-3.79.49-7.27-3.21-10.34-9.25-7.65-13.66-17.27-9.62-29.49a2.77,2.77,0,0,0-1.2-2.34A13.78,13.78,0,0,0,254.44,13.57Zm41.09.34c-4.72-.25-5.44.58-4.43,4.57,2.81,11.11-1,20.24-9.49,27.15-3.91,3.2-4.35,6.66-4,10.83a2.59,2.59,0,0,0,2,1.53c9.31-2,17.5-11.32,16.87-20.84-.48-7.08-.53-14.19-.77-21.29C295.67,15.2,295.58,14.54,295.53,13.91ZM285.24,18.5c-6.5,3.32-9.43,14.54-7.09,23C285.43,37.41,289.48,25.08,285.24,18.5Zm-20.73,0c-4.36,8,.73,19.75,7.45,23C273.57,31.68,271.15,21.88,264.51,18.49ZM275,22.24c1.36-1.71,2.62-3.44,4-5,4.1-4.7,4.12-4.79-.67-9-.29-.26-.57-.63-.92-.73-1.29-.35-3.19-1.31-3.8-.79a57.33,57.33,0,0,0-6.06,6.57c-.1.11.26.71.51,1C270.32,16.84,272.57,19.43,275,22.24Z"/><path class="cls-1" d="M37.1,72.79c-13.37.29-26.29.37-37.07,10.73,0-4-.12-7.24.13-10.42,0-.51,1.76-1.24,2.71-1.25,8.43-.1,16.85-.06,25.28-.06,18.23,0,36.47,0,54.7-.06,2.61,0,3.86.55,3.59,3.42-.24,2.52,0,5.07,0,8.06a18.4,18.4,0,0,1-2.1-1.29c-7.13-6.06-15.57-8.37-24.72-8.71a67.3,67.3,0,0,1-6.82-.42C50,72.41,49,73.2,49,76.21c.14,17.82.05,35.64.05,53.46q0,24.2,0,48.4c0,4,0,4-3.83,4-8.16.07-8.16.07-8.16-7.93V72.79Z"/><path class="cls-1" d="M204.86,180.43c11.25,0,22.18.68,33-.21,9.36-.78,14.67-7.87,18.61-15.82.3-.61.59-1.23.9-1.84,0-.06.18-.07.56-.19-1,6.54-2.07,12.94-3.13,19.57-1.22.06-2.28.15-3.34.15-18.54,0-37.07,0-55.61,0-2.58,0-3.56-.5-3.55-3.39q.16-51.69,0-103.36c0-2.67.62-3.81,3.44-3.51s6.78-.67,8.5.85c1.48,1.31.6,5.37.6,8.22q0,48.26,0,96.52Z"/><path class="cls-1" d="M407.17,85.54,414,71.94l1.14,0,46.73,110c-4.35,0-8.06.15-11.75-.11-.77,0-1.69-1.47-2.11-2.44-4.91-11.56-9.69-23.18-14.62-34.73-2.71-6.33-1-5.14-7.62-4.09-16.42,2.59-26.07,13-31.79,27.91a70.53,70.53,0,0,1-4.43,9.68c-2.12,3.73-6,5.72-9.12,4.74a9.41,9.41,0,0,1-6.93-7.77c-1-6,.33-11.83,1.85-17.57,4.36-16.42,11.26-31.87,18.58-47.13,3.68-7.67,7.66-15.2,11.55-22.76a15.11,15.11,0,0,1,1.75-2.27,28.17,28.17,0,0,1-1.05,2.74c-3.05,6.1-6.19,12.16-9.19,18.29-8,16.34-15.78,32.81-20.36,50.5-1.39,5.38-1.76,11.08-2.12,16.66a7.07,7.07,0,0,0,4,7.11c3.92,1.93,7.63,1.1,10-2.79a57.46,57.46,0,0,0,4.27-9.41c5.9-15.48,15.91-26.24,32.95-29.11,1.6-.27,3.21-.51,4.92-.78a10,10,0,0,0-.34-1.47q-10.67-24.93-21.4-49.85C408.58,86.62,407.76,86.13,407.17,85.54Z"/><path class="cls-1" d="M269.71,182.13V72c3.38,0,6.61-.08,9.83.08.55,0,1.26,1,1.52,1.62a6.78,6.78,0,0,1,.09,2.35q0,50.63,0,101.24c0,5.64.43,4.78-5,4.88C274.12,182.17,272.06,182.13,269.71,182.13Z"/></g></g></svg>