<svg width="650" height="260" viewBox="0 0 650 260" fill="none" xmlns="http://www.w3.org/2000/svg">
<g clip-path="url(#clip0_181_1190)">
<path d="M294.234 184.829C295.811 186.377 295.503 187.525 295.51 188.543C295.51 194.279 295.345 200.016 295.51 205.752C295.589 208.513 294.793 209.416 291.925 209.402C273.526 209.28 255.126 209.344 236.713 209.344C222.974 209.344 209.236 209.344 195.497 209.344C194.271 209.344 192.951 209.646 191.582 208.799C192.041 208.384 192.263 208.003 192.507 207.982C199.907 207.358 202.416 202.368 203.499 195.928C204.646 188.995 204.646 182.097 204.833 175.177C204.905 172.625 203.442 172.668 201.621 172.646C184.189 172.431 166.944 168.831 149.441 169.735C149.004 169.735 148.459 169.735 148.294 169.125C148.373 168.903 148.43 168.53 148.523 168.516C156.124 167.799 158.949 162.722 159.996 155.968C160.819 150.043 161.205 144.066 161.151 138.085C161.151 110.617 161.151 83.1447 161.151 55.6676C161.151 51.1359 160.892 46.5898 160.469 42.0796C159.681 34.1132 158.541 26.2831 148 25.5733C148.631 23.6659 149.929 24.2754 150.818 24.3041C164.363 24.763 177.757 22.9776 191.195 21.7944C208.87 20.2384 225.52 22.8772 239.954 34.2208C247.927 40.4045 254.179 48.5325 258.109 57.8259C269.195 84.0195 269.302 110.414 257.944 136.443C250.609 153.25 237.924 164.751 220.006 169.9C218.048 170.466 217.309 171.484 217.317 173.442C217.36 183.959 217.36 194.475 217.317 204.992C217.317 206.792 217.711 207.86 219.876 207.86C236.835 207.86 253.828 208.369 270.485 204.275C273.392 203.595 276.252 202.728 279.047 201.679C286.691 198.739 293.015 194.415 294.234 184.829ZM230.13 64.014C230.08 65.2042 229.413 65.1756 228.839 65.2401C223.268 65.8496 220.536 69.3918 219.231 74.4541C218.04 79.4557 217.476 84.5862 217.553 89.7271C217.438 114.336 217.352 138.955 217.295 163.583C217.295 167.383 217.711 167.634 221.138 165.913C232.202 160.377 239.717 151.465 244.844 140.444C252.731 123.421 254.589 105.359 253.183 86.8805C252.244 74.2677 249.469 62.0779 243.453 50.7917C236.705 38.1574 227.104 28.7569 212.878 25.1072C200.344 21.9235 187.997 23.5512 175.735 26.8711C173.469 27.4806 173.584 29.0222 173.584 30.7288C173.584 74.9274 173.56 119.126 173.512 163.324C173.512 165.892 174.502 166.91 176.804 167.491C184.787 169.559 193.001 170.607 201.248 170.61C204.044 170.61 204.919 169.749 204.905 166.91C204.768 141.096 204.804 115.283 204.697 89.5049C204.68 84.4836 204.095 79.4803 202.954 74.5903C201.721 69.3272 198.874 65.7564 193.116 65.2186C192.564 65.1684 191.883 65.1325 191.998 64.014H230.13Z" fill="#0D0D0D"/>
<path d="M300.014 64.0142H338.648C338.067 64.6523 337.874 65.0682 337.644 65.0826C330.811 65.5845 328.021 70.0302 326.888 76.0748C325.591 82.8007 325.404 89.6054 325.39 96.4174C325.347 120.434 325.347 144.447 325.39 168.459C325.39 178.168 326.931 187.611 332.467 195.807C340.792 208.126 353.053 211.983 367.186 210.363C381.721 208.699 391.042 200.324 395.553 186.514C397.394 180.566 398.268 174.361 398.141 168.136C398.041 140.781 398.643 113.418 397.747 86.0633C397.665 83.6769 397.448 81.2972 397.094 78.9358C396.047 71.8371 394.176 65.312 384.826 65.0826L385.299 64.1863H423.732C423.567 64.5735 423.532 64.7671 423.481 64.7742C414.31 65.8283 412.26 72.5542 411.564 80.0759C411.012 86.0202 410.747 92.0004 410.718 98.002C410.618 121.299 410.675 144.61 410.661 167.892C410.661 181.301 406.781 193.125 396.026 201.844C387.923 208.355 378.315 211.295 368.169 212.048C358.022 212.801 347.855 211.99 338.261 207.925C322.371 201.192 313.666 189.059 313.164 171.965C312.548 151.551 312.949 131.094 312.842 110.679C312.799 102.197 312.526 93.7213 312.454 85.2387C312.298 81.4318 311.733 77.6528 310.769 73.9667C309.629 68.9331 307.98 67.6567 300.014 64.0142Z" fill="#0D0D0D"/>
<path d="M433.548 208.972C433.548 207.315 434.717 206.154 435.52 204.885C463.131 161.178 490.761 117.489 518.41 73.8162C519.622 71.8945 520.769 69.937 521.995 68.0153C523.221 66.0936 522.712 65.1902 520.425 65.2045C514.452 65.2045 508.479 65.1185 502.499 65.2045C489.972 65.3981 477.402 64.4086 464.954 66.5884C459.279 67.4635 453.765 69.1743 448.591 71.6651C443.766 74.0959 439.922 77.4014 438.976 83.3099L437.843 83.0302C437.843 79.5669 437.843 76.1036 437.843 72.6403C437.843 63.7059 437.843 63.7059 446.741 63.7059C476.006 63.7059 505.271 63.7059 534.536 63.7059C535.662 63.7059 537.196 63.0821 537.842 64.2365C538.487 65.3909 537.125 66.3876 536.544 67.3413C510.252 108.93 483.961 150.502 457.669 192.057C454.866 196.495 452.141 200.991 449.359 205.437C448.441 206.907 448.319 207.839 450.499 207.846C470.805 207.918 491.141 208.334 511.06 203.293C516.28 201.973 521.357 200.174 525.903 197.184C527.966 195.904 529.725 194.19 531.058 192.162C532.392 190.134 533.268 187.839 533.626 185.438C535.203 185.689 534.852 186.715 534.859 187.439C534.902 193.77 534.859 200.102 534.938 206.433C534.938 208.183 534.708 209.337 532.457 209.337C499.726 209.266 466.996 209.232 434.265 209.237C434.013 209.19 433.77 209.1 433.548 208.972Z" fill="#0D0D0D"/>
<path d="M284.562 45.5071C283.931 34.8303 278.503 29.0939 267.403 28.5275C278.281 27.5666 284.089 22.1816 284.655 11.0603C285.537 22.0024 291.066 27.7244 301.922 28.2048C297.62 29.9329 293.038 29.7895 289.646 33.1452C286.254 36.501 286.154 41.0471 284.562 45.5071Z" fill="#0D0D0D"/>
<path d="M297.195 9.77693C301.569 8.43606 302.05 7.96281 303.448 3.28052C304.502 5.5392 305.018 7.90545 307.406 9.01687C308.345 9.44709 308.467 10.3362 307.298 10.8166C305.04 11.7416 304.43 13.8426 303.477 16.553C302.731 12.5232 300.68 10.451 297.195 9.77693Z" fill="#0D0D0D"/>
<path d="M271.733 37.928C272.192 39.9357 273.576 40.9539 275.849 41.7928C273.583 42.5099 272.342 43.693 271.805 45.9517C270.715 44.0013 269.718 42.4525 267.366 41.8645C269.56 40.9467 270.858 39.8497 271.733 37.928Z" fill="#0D0D0D"/>
<path d="M215.014 252.166L216.656 250.223C219.108 252.467 221.453 253.543 224.708 253.543C227.963 253.543 229.935 251.865 229.935 249.549V249.484C229.935 247.333 228.759 246.1 223.833 245.024C218.434 243.848 215.946 242.106 215.946 238.248V238.184C215.946 234.527 219.201 231.78 223.661 231.78C226.669 231.69 229.605 232.711 231.907 234.649L230.366 236.692C228.489 235.052 226.082 234.148 223.59 234.147C220.506 234.147 218.57 235.789 218.57 237.933V237.997C218.57 240.213 219.746 241.489 224.945 242.558C230.143 243.626 232.61 245.641 232.61 249.226V249.291C232.61 253.313 229.261 255.93 224.601 255.93C221.033 255.989 217.588 254.636 215.014 252.166Z" fill="#0D0D0D"/>
<path d="M250.767 232.11H267.747V234.527H253.406V242.543H266.212V244.96H253.406V253.17H267.89V255.586H250.753L250.767 232.11Z" fill="#0D0D0D"/>
<path d="M285.981 232.11H288.67L297.217 244.924L305.75 232.11H308.431V255.586H305.778V236.57L297.231 249.147H297.145L288.541 236.606V255.586H285.952L285.981 232.11Z" fill="#0D0D0D"/>
<path d="M328.078 232.11H330.724V255.586H328.078V232.11Z" fill="#0D0D0D"/>
<path d="M348.056 251.765L349.97 250.122C351.404 252.274 352.889 253.478 355.334 253.478C357.987 253.478 359.93 251.564 359.93 247.842V232.11H362.612V247.792C362.612 250.574 361.809 252.625 360.461 253.966C359.774 254.619 358.963 255.128 358.077 255.462C357.19 255.796 356.245 255.948 355.298 255.909C353.827 255.947 352.374 255.581 351.097 254.85C349.82 254.119 348.768 253.052 348.056 251.765Z" fill="#0D0D0D"/>
<path d="M380.601 243.92V243.849C380.601 237.395 385.462 231.709 392.604 231.709C399.746 231.709 404.543 237.309 404.543 243.784V243.849C404.543 250.302 399.681 255.988 392.532 255.988C385.383 255.988 380.601 250.388 380.601 243.92ZM401.789 243.92V243.849C401.789 238.521 397.903 234.161 392.532 234.161C387.162 234.161 383.347 238.464 383.347 243.784V243.849C383.347 249.183 387.24 253.543 392.604 253.543C397.967 253.543 401.789 249.226 401.789 243.92Z" fill="#0D0D0D"/>
<path d="M423.122 232.11H425.775V255.586H423.122V232.11Z" fill="#0D0D0D"/>
<path d="M454.084 231.946H456.565L467.264 255.608H464.395L461.649 249.406H448.886L446.096 255.608H443.422L454.084 231.946ZM460.624 247.004L455.289 235.029L449.925 247.004H460.624Z" fill="#0D0D0D"/>
<path d="M482.622 252.166L484.264 250.223C486.716 252.467 489.061 253.543 492.316 253.543C495.572 253.543 497.544 251.865 497.544 249.549V249.484C497.544 247.333 496.375 246.1 491.442 245.025C486.042 243.849 483.554 242.106 483.554 238.248V238.184C483.554 234.527 486.81 231.781 491.27 231.781C494.278 231.686 497.215 232.708 499.516 234.649L497.974 236.692C496.1 235.053 493.695 234.149 491.205 234.147C488.115 234.147 486.186 235.789 486.186 237.933V237.997C486.186 240.213 487.355 241.489 492.553 242.558C497.752 243.626 500.233 245.641 500.233 249.226V249.291C500.233 253.314 496.877 255.931 492.216 255.931C488.647 255.991 485.198 254.638 482.622 252.166Z" fill="#0D0D0D"/>
</g>
<defs>
<clipPath id="clip0_181_1190">
<rect width="390" height="252.708" fill="white" transform="translate(148 3.28052)"/>
</clipPath>
</defs>
</svg>
